<svg xmlns="http://www.w3.org/2000/svg" fill="#FFAE27" height="40" width="40"><path d="M11.833 37.208q-1.333 0-2.25-.937-.916-.938-.916-2.229 0-1.292.937-2.209.938-.916 2.229-.916 1.292 0 2.209.916.916.917.916 2.209 0 1.333-.916 2.25-.917.916-2.209.916Zm16.709 0q-1.334 0-2.23-.937-.895-.938-.895-2.229 0-1.292.916-2.209.917-.916 2.209-.916 1.333 0 2.229.916.896.917.896 2.209 0 1.333-.896 2.25-.896.916-2.229.916ZM8.875 6.042H32.25q1.5 0 2.312 1.396.813 1.395.063 2.812l-4.958 9q-.542.917-1.396 1.5-.854.583-1.896.583H14.083l-1.791 3.417h19.916v3.875H11.542q-2.167 0-3.146-1.604-.979-1.604.021-3.396l2.416-4.333L4.875 6.625h-3.5V2.75h5.958Z"/></svg>