<?xml version="1.0" encoding="UTF-8" standalone="no"?>
<svg
   width="586"
   height="288"
   viewBox="0 0 586 288"
   fill="none"
   version="1.1"
   id="svg59"
   sodipodi:docname="logo_euclidia.svg"
   inkscape:version="1.1.2 (0a00cf5339, 2022-02-04)"
   xmlns:inkscape="http://www.inkscape.org/namespaces/inkscape"
   xmlns:sodipodi="http://sodipodi.sourceforge.net/DTD/sodipodi-0.dtd"
   xmlns="http://www.w3.org/2000/svg"
   xmlns:svg="http://www.w3.org/2000/svg">
  <defs
     id="defs63" />
  <sodipodi:namedview
     id="namedview61"
     pagecolor="#505050"
     bordercolor="#eeeeee"
     borderopacity="1"
     inkscape:pageshadow="0"
     inkscape:pageopacity="0"
     inkscape:pagecheckerboard="0"
     showgrid="false"
     inkscape:zoom="2.9129693"
     inkscape:cx="413.8389"
     inkscape:cy="159.28764"
     inkscape:window-width="1920"
     inkscape:window-height="1048"
     inkscape:window-x="0"
     inkscape:window-y="32"
     inkscape:window-maximized="1"
     inkscape:current-layer="svg59" />
  <path
     d="M51 85.4138L144.208 32.6027L144.014 74.0906L90.5193 104.659L88 106.098V109V111V172V174.914L90.5359 176.351L144.499 206.914L144.492 249.431L51 196.583V85.4138Z"
     stroke="#FFAE27"
     stroke-width="10"
     stroke-linecap="square"
     id="path53" />
  <path
     d="M259.5 196.586L166.292 249.397L166.486 207.909L219.981 177.341L222.5 175.902V173V171L222.5 110V107.086L219.964 105.649L166.001 75.0859L166.008 32.569L259.5 85.4172V196.586Z"
     stroke="#FFAE27"
     stroke-width="10"
     stroke-linecap="square"
     id="path55" />
  <path
     d="M297.752 123.128V138.04H314.008V142.84H297.752V158.2H315.928V163H291.928V118.328H315.928V123.128H297.752ZM355.845 127.928V163H350.021V157.816C348.911 159.608 347.354 161.016 345.349 162.04C343.386 163.021 341.21 163.512 338.821 163.512C336.09 163.512 333.637 162.957 331.461 161.848C329.285 160.696 327.557 158.989 326.277 156.728C325.039 154.467 324.421 151.715 324.421 148.472V127.928H330.181V147.704C330.181 151.16 331.055 153.827 332.805 155.704C334.554 157.539 336.943 158.456 339.973 158.456C343.087 158.456 345.541 157.496 347.333 155.576C349.125 153.656 350.021 150.861 350.021 147.192V127.928H355.845ZM363.502 145.4C363.502 141.773 364.227 138.616 365.678 135.928C367.129 133.197 369.134 131.085 371.694 129.592C374.297 128.099 377.262 127.352 380.59 127.352C384.899 127.352 388.441 128.397 391.214 130.488C394.03 132.579 395.886 135.48 396.782 139.192H390.51C389.913 137.059 388.739 135.373 386.99 134.136C385.283 132.899 383.15 132.28 380.59 132.28C377.262 132.28 374.574 133.432 372.526 135.736C370.478 137.997 369.454 141.219 369.454 145.4C369.454 149.624 370.478 152.888 372.526 155.192C374.574 157.496 377.262 158.648 380.59 158.648C383.15 158.648 385.283 158.051 386.99 156.856C388.697 155.661 389.87 153.955 390.51 151.736H396.782C395.843 155.32 393.966 158.2 391.15 160.376C388.334 162.509 384.814 163.576 380.59 163.576C377.262 163.576 374.297 162.829 371.694 161.336C369.134 159.843 367.129 157.731 365.678 155C364.227 152.269 363.502 149.069 363.502 145.4ZM410.377 115.64V163H404.553V115.64H410.377ZM423.311 122.232C422.202 122.232 421.263 121.848 420.495 121.08C419.727 120.312 419.343 119.373 419.343 118.264C419.343 117.155 419.727 116.216 420.495 115.448C421.263 114.68 422.202 114.296 423.311 114.296C424.378 114.296 425.274 114.68 425.999 115.448C426.767 116.216 427.151 117.155 427.151 118.264C427.151 119.373 426.767 120.312 425.999 121.08C425.274 121.848 424.378 122.232 423.311 122.232ZM426.127 127.928V163H420.303V127.928H426.127ZM433.877 145.336C433.877 141.752 434.602 138.616 436.053 135.928C437.504 133.197 439.488 131.085 442.005 129.592C444.565 128.099 447.424 127.352 450.581 127.352C453.312 127.352 455.85 127.992 458.197 129.272C460.544 130.509 462.336 132.152 463.573 134.2V115.64H469.461V163H463.573V156.408C462.421 158.499 460.714 160.227 458.453 161.592C456.192 162.915 453.546 163.576 450.517 163.576C447.402 163.576 444.565 162.808 442.005 161.272C439.488 159.736 437.504 157.581 436.053 154.808C434.602 152.035 433.877 148.877 433.877 145.336ZM463.573 145.4C463.573 142.755 463.04 140.451 461.973 138.488C460.906 136.525 459.456 135.032 457.621 134.008C455.829 132.941 453.845 132.408 451.669 132.408C449.493 132.408 447.509 132.92 445.717 133.944C443.925 134.968 442.496 136.461 441.429 138.424C440.362 140.387 439.829 142.691 439.829 145.336C439.829 148.024 440.362 150.371 441.429 152.376C442.496 154.339 443.925 155.853 445.717 156.92C447.509 157.944 449.493 158.456 451.669 158.456C453.845 158.456 455.829 157.944 457.621 156.92C459.456 155.853 460.906 154.339 461.973 152.376C463.04 150.371 463.573 148.045 463.573 145.4ZM482.311 122.232C481.202 122.232 480.263 121.848 479.495 121.08C478.727 120.312 478.343 119.373 478.343 118.264C478.343 117.155 478.727 116.216 479.495 115.448C480.263 114.68 481.202 114.296 482.311 114.296C483.378 114.296 484.274 114.68 484.999 115.448C485.767 116.216 486.151 117.155 486.151 118.264C486.151 119.373 485.767 120.312 484.999 121.08C484.274 121.848 483.378 122.232 482.311 122.232ZM485.127 127.928V163H479.303V127.928H485.127ZM492.877 145.336C492.877 141.752 493.602 138.616 495.053 135.928C496.504 133.197 498.488 131.085 501.005 129.592C503.565 128.099 506.402 127.352 509.517 127.352C512.589 127.352 515.256 128.013 517.517 129.336C519.778 130.659 521.464 132.323 522.573 134.328V127.928H528.461V163H522.573V156.472C521.421 158.52 519.693 160.227 517.389 161.592C515.128 162.915 512.482 163.576 509.453 163.576C506.338 163.576 503.522 162.808 501.005 161.272C498.488 159.736 496.504 157.581 495.053 154.808C493.602 152.035 492.877 148.877 492.877 145.336ZM522.573 145.4C522.573 142.755 522.04 140.451 520.973 138.488C519.906 136.525 518.456 135.032 516.621 134.008C514.829 132.941 512.845 132.408 510.669 132.408C508.493 132.408 506.509 132.92 504.717 133.944C502.925 134.968 501.496 136.461 500.429 138.424C499.362 140.387 498.829 142.691 498.829 145.336C498.829 148.024 499.362 150.371 500.429 152.376C501.496 154.339 502.925 155.853 504.717 156.92C506.509 157.944 508.493 158.456 510.669 158.456C512.845 158.456 514.829 157.944 516.621 156.92C518.456 155.853 519.906 154.339 520.973 152.376C522.04 150.371 522.573 148.045 522.573 145.4Z"
     fill="#413B3B"
     id="path57" />
  <path
     style="fill:#ffffff;stroke-width:0.242744"
     d="m 292.1428,140.67034 v -22.21111 h 11.89448 11.89447 v 2.30607 2.30608 h -9.10291 -9.10292 v 7.52507 7.52507 h 8.13194 8.13193 v 2.30608 2.30607 h -8.13193 -8.13194 v 7.76782 7.76781 h 9.10292 9.10291 v 2.30608 2.30607 H 304.03728 292.1428 Z"
     id="path337" />
  <path
     style="fill:#ffffff;stroke-width:0.242744"
     d="m 334.69852,162.8828 c -0.95982,-0.25158 -2.37987,-0.76443 -3.15568,-1.13967 -1.92338,-0.93032 -4.3536,-3.39695 -5.34846,-5.42862 -1.55043,-3.16624 -1.58602,-3.51246 -1.70159,-16.55446 l -0.10487,-11.83379 h 2.8115 2.8115 l 0.008,10.37732 c 0.006,7.59913 0.096,10.868 0.33546,12.21012 0.96338,5.39966 4.62573,8.24897 10.20097,7.93635 3.11585,-0.17471 4.71719,-0.83362 6.58208,-2.70832 1.63998,-1.64861 2.39212,-3.26404 2.78483,-5.98119 0.12441,-0.86082 0.2284,-6.12568 0.23109,-11.6997 l 0.005,-10.13458 h 2.79156 2.79156 v 17.47759 17.4776 h -2.79156 -2.79156 v -2.54723 -2.54723 l -1.63853,1.66523 c -1.82967,1.85949 -3.79005,2.98399 -6.18748,3.54925 -2.09953,0.49501 -5.49413,0.44224 -7.63417,-0.11867 z"
     id="path376" />
  <path
     style="fill:#ffffff;stroke-width:0.242744"
     d="m 377.10332,163.19941 c -1.71717,-0.28695 -4.59172,-1.46484 -6.20005,-2.54056 -4.08924,-2.73505 -6.49393,-7.02591 -7.15801,-12.77253 -0.31652,-2.73906 -0.0658,-6.03414 0.65013,-8.54282 1.18045,-4.1366 4.5524,-8.31904 8.09579,-10.0417 2.87362,-1.39705 4.49251,-1.73593 8.2533,-1.7277 3.76911,0.008 5.43483,0.35709 8.25331,1.72839 3.34034,1.6252 6.82662,5.84645 7.43389,9.00109 l 0.15187,0.78892 h -3.03833 -3.03833 l -0.16488,-0.66754 c -0.24071,-0.97463 -1.49687,-2.84423 -2.50676,-3.73092 -0.48278,-0.42389 -1.59299,-1.10963 -2.46713,-1.52386 -1.52411,-0.72224 -1.71883,-0.75315 -4.74501,-0.75315 -3.05232,0 -3.20986,0.0257 -4.80999,0.78356 -2.94931,1.39692 -5.12853,4.23071 -6.02432,7.83387 -0.42924,1.72651 -0.42281,6.97962 0.0107,8.73879 1.39135,5.64617 5.47292,8.98154 10.99088,8.98154 1.99376,0 4.41905,-0.68165 5.95041,-1.67244 1.61063,-1.04207 2.52036,-2.13427 3.36103,-4.03518 l 0.58906,-1.33196 h 2.94634 2.94633 l -0.15583,0.77913 c -0.37424,1.87125 -1.92954,4.41676 -3.90239,6.38692 -3.25531,3.25088 -6.61985,4.51187 -11.88036,4.45262 -1.61414,-0.0182 -3.20788,-0.0787 -3.54165,-0.13447 z"
     id="path415" />
  <path
     style="fill:#ffffff;stroke-width:0.242744"
     d="m 404.77617,139.33525 v -23.5462 h 2.79156 2.79156 v 23.5462 23.5462 h -2.79156 -2.79156 z"
     id="path454" />
  <path
     style="fill:#ffffff;stroke-width:0.242744"
     d="m 420.31181,145.40385 v -17.47759 h 2.91293 2.91293 v 17.47759 17.4776 h -2.91293 -2.91293 z"
     id="path493" />
  <path
     style="fill:#ffffff;stroke-width:0.242744"
     d="m 446.12693,162.88502 c -5.70426,-1.49535 -9.79795,-5.85363 -11.51775,-12.26216 -0.73538,-2.74029 -0.74181,-7.9176 -0.0132,-10.62898 1.3268,-4.93743 4.41692,-8.82269 8.65517,-10.8823 4.58834,-2.22974 9.80656,-2.20909 14.44329,0.0572 1.66486,0.81371 2.45007,1.40214 4.06596,3.04698 l 2.00265,2.03851 v -9.23259 -9.23259 h 2.79156 2.79155 v 23.5462 23.5462 h -2.79155 -2.79156 v -3.15568 c 0,-1.75513 -0.099,-3.15568 -0.22295,-3.15568 -0.12262,0 -0.4531,0.37239 -0.73439,0.82754 -0.83934,1.35808 -3.517,3.68695 -5.15638,4.48471 -0.843,0.41023 -2.18378,0.91208 -2.97951,1.11523 -2.05021,0.52342 -6.33208,0.46701 -8.54289,-0.11255 z m 8.57292,-4.71246 c 2.77977,-0.74013 5.33883,-2.60153 6.88135,-5.00533 1.3752,-2.14307 1.99713,-4.56142 1.99651,-7.76338 -4.9e-4,-2.35065 -0.10147,-3.10444 -0.63956,-4.77255 -1.0543,-3.26838 -3.14688,-5.70938 -6.09332,-7.10785 -7.15993,-3.39833 -15.09775,0.58687 -16.75595,8.41235 -1.58639,7.48657 2.05705,14.48222 8.43714,16.1999 1.65023,0.44428 4.57797,0.46176 6.17383,0.0369 z"
     id="path532" />
  <path
     style="fill:#ffffff;stroke-width:0.242744"
     d="m 479.29868,145.40385 v -17.47759 h 2.91293 2.91294 v 17.47759 17.4776 h -2.91294 -2.91293 z"
     id="path571" />
  <path
     style="fill:#ffffff;stroke-width:0.242744"
     d="m 505.40983,162.9781 c -2.78837,-0.67444 -4.92824,-1.92157 -7.2013,-4.19696 -2.37278,-2.37521 -3.71859,-4.75259 -4.61831,-8.15828 -0.74734,-2.82887 -0.74541,-7.71251 0.004,-10.55216 1.28795,-4.87919 4.4673,-8.9308 8.55775,-10.90561 4.97989,-2.40422 11.08109,-2.24945 15.44754,0.39185 1.67539,1.01346 3.68604,2.84665 4.34414,3.96073 0.23391,0.39597 0.51097,0.71995 0.61569,0.71995 0.10472,0 0.19041,-1.42006 0.19041,-3.15568 v -3.15568 h 2.79156 2.79156 v 17.47759 17.4776 h -2.79156 -2.79156 v -3.15568 c 0,-1.73562 -0.0819,-3.15056 -0.18206,-3.14431 -0.10013,0.006 -0.56438,0.55286 -1.03166,1.21468 -1.67685,2.37493 -4.89222,4.45672 -8.0234,5.19475 -1.95962,0.46188 -6.16799,0.45524 -8.10297,-0.0128 z m 7.9218,-4.73661 c 4.33707,-0.91222 7.80397,-4.47495 8.94909,-9.19647 0.41457,-1.70929 0.41662,-5.55991 0.004,-7.28233 -1.59983,-6.67655 -8.06798,-10.74127 -14.47315,-9.09523 -4.62994,1.18983 -7.81779,4.6565 -8.74676,9.51177 -1.44126,7.53279 2.10461,14.25098 8.41772,15.94867 1.59533,0.42901 4.11677,0.47797 5.84921,0.11359 z"
     id="path649" />
  <path
     style="fill:#ffffff;stroke-width:0.242744"
     d="m 421.62632,121.75536 c -0.9488,-0.41311 -1.72771,-1.39794 -2.04883,-2.59049 -0.47133,-1.7504 0.38371,-3.53076 2.09312,-4.35828 1.9867,-0.96174 4.09527,-0.1625 5.00661,1.89774 1.43994,3.25521 -1.77997,6.47519 -5.0509,5.05103 z"
     id="path766" />
  <path
     style="fill:#ffffff;stroke-width:0.242744"
     d="m 480.61319,121.75536 c -1.97673,-0.86067 -2.76666,-3.69679 -1.56541,-5.62031 1.07512,-1.72153 3.81718,-2.22992 5.42264,-1.00537 1.60053,1.22078 2.0549,3.76188 0.94157,5.26582 -1.16268,1.5706 -3.07208,2.11168 -4.7988,1.35986 z"
     id="path805" />
</svg>
